# This file uses centimeters as units for non-parametric coordinates.

mtllib escenario_layout.mtl
g default
v -24.560381 0.088824 24.852354
v -17.262450 0.088824 24.852354
v -24.560381 12.868186 24.852354
v -17.262450 12.868186 24.852354
v -24.560381 12.868186 14.317558
v -17.262450 12.868186 14.317558
v -24.560381 0.088824 14.317558
v -17.262450 0.088824 14.317558
vt 0.375000 0.000000
vt 0.625000 0.000000
vt 0.375000 0.250000
vt 0.625000 0.250000
vt 0.375000 0.500000
vt 0.625000 0.500000
vt 0.375000 0.750000
vt 0.625000 0.750000
vt 0.375000 1.000000
vt 0.625000 1.000000
vt 0.875000 0.000000
vt 0.875000 0.250000
vt 0.125000 0.000000
vt 0.125000 0.250000
vn 0.000000 0.000000 1.000000
vn 0.000000 0.000000 1.000000
vn 0.000000 0.000000 1.000000
vn 0.000000 0.000000 1.000000
vn 0.000000 1.000000 0.000000
vn 0.000000 1.000000 0.000000
vn 0.000000 1.000000 0.000000
vn 0.000000 1.000000 0.000000
vn 0.000000 0.000000 -1.000000
vn 0.000000 0.000000 -1.000000
vn 0.000000 0.000000 -1.000000
vn 0.000000 0.000000 -1.000000
vn 0.000000 -1.000000 0.000000
vn 0.000000 -1.000000 0.000000
vn 0.000000 -1.000000 0.000000
vn 0.000000 -1.000000 0.000000
vn 1.000000 0.000000 0.000000
vn 1.000000 0.000000 0.000000
vn 1.000000 0.000000 0.000000
vn 1.000000 0.000000 0.000000
vn -1.000000 0.000000 0.000000
vn -1.000000 0.000000 0.000000
vn -1.000000 0.000000 0.000000
vn -1.000000 0.000000 0.000000
s off
g pCube1
usemtl initialShadingGroup
f 1/1/1 2/2/2 4/4/3 3/3/4
f 3/3/5 4/4/6 6/6/7 5/5/8
f 5/5/9 6/6/10 8/8/11 7/7/12
f 7/7/13 8/8/14 2/10/15 1/9/16
f 2/2/17 8/11/18 6/12/19 4/4/20
f 7/13/21 1/1/22 3/3/23 5/14/24
g default
v -16.240038 0.070984 24.852354
v -5.705241 0.070984 24.852354
v -16.240038 18.929016 24.852354
v -5.705241 18.929016 24.852354
v -16.240038 18.929016 14.317558
v -5.705241 18.929016 14.317558
v -16.240038 0.070984 14.317558
v -5.705241 0.070984 14.317558
vt 0.375000 0.000000
vt 0.625000 0.000000
vt 0.375000 0.250000
vt 0.625000 0.250000
vt 0.375000 0.500000
vt 0.625000 0.500000
vt 0.375000 0.750000
vt 0.625000 0.750000
vt 0.375000 1.000000
vt 0.625000 1.000000
vt 0.875000 0.000000
vt 0.875000 0.250000
vt 0.125000 0.000000
vt 0.125000 0.250000
vn 0.000000 0.000000 1.000000
vn 0.000000 0.000000 1.000000
vn 0.000000 0.000000 1.000000
vn 0.000000 0.000000 1.000000
vn 0.000000 1.000000 0.000000
vn 0.000000 1.000000 0.000000
vn 0.000000 1.000000 0.000000
vn 0.000000 1.000000 0.000000
vn 0.000000 0.000000 -1.000000
vn 0.000000 0.000000 -1.000000
vn 0.000000 0.000000 -1.000000
vn 0.000000 0.000000 -1.000000
vn 0.000000 -1.000000 0.000000
vn 0.000000 -1.000000 0.000000
vn 0.000000 -1.000000 0.000000
vn 0.000000 -1.000000 0.000000
vn 1.000000 0.000000 0.000000
vn 1.000000 0.000000 0.000000
vn 1.000000 0.000000 0.000000
vn 1.000000 0.000000 0.000000
vn -1.000000 0.000000 0.000000
vn -1.000000 0.000000 0.000000
vn -1.000000 0.000000 0.000000
vn -1.000000 0.000000 0.000000
s off
g pCube2
usemtl initialShadingGroup
f 9/15/25 10/16/26 12/18/27 11/17/28
f 11/17/29 12/18/30 14/20/31 13/19/32
f 13/19/33 14/20/34 16/22/35 15/21/36
f 15/21/37 16/22/38 10/24/39 9/23/40
f 10/16/41 16/25/42 14/26/43 12/18/44
f 15/27/45 9/15/46 11/17/47 13/28/48
g default
v 2.782473 0.352783 32.300009
v 15.152347 0.352783 32.300009
v 2.782473 18.209089 32.300009
v 15.152347 18.209089 32.300009
v 2.782473 18.209089 14.443703
v 15.152347 18.209089 14.443703
v 2.782473 0.352783 14.443703
v 15.152347 0.352783 14.443703
vt 0.375000 0.000000
vt 0.625000 0.000000
vt 0.375000 0.250000
vt 0.625000 0.250000
vt 0.375000 0.500000
vt 0.625000 0.500000
vt 0.375000 0.750000
vt 0.625000 0.750000
vt 0.375000 1.000000
vt 0.625000 1.000000
vt 0.875000 0.000000
vt 0.875000 0.250000
vt 0.125000 0.000000
vt 0.125000 0.250000
vn 0.000000 0.000000 1.000000
vn 0.000000 0.000000 1.000000
vn 0.000000 0.000000 1.000000
vn 0.000000 0.000000 1.000000
vn 0.000000 1.000000 0.000000
vn 0.000000 1.000000 0.000000
vn 0.000000 1.000000 0.000000
vn 0.000000 1.000000 0.000000
vn 0.000000 0.000000 -1.000000
vn 0.000000 0.000000 -1.000000
vn 0.000000 0.000000 -1.000000
vn 0.000000 0.000000 -1.000000
vn 0.000000 -1.000000 0.000000
vn 0.000000 -1.000000 0.000000
vn 0.000000 -1.000000 0.000000
vn 0.000000 -1.000000 0.000000
vn 1.000000 0.000000 0.000000
vn 1.000000 0.000000 0.000000
vn 1.000000 0.000000 0.000000
vn 1.000000 0.000000 0.000000
vn -1.000000 0.000000 0.000000
vn -1.000000 0.000000 0.000000
vn -1.000000 0.000000 0.000000
vn -1.000000 0.000000 0.000000
s off
g pCube3
usemtl initialShadingGroup
f 17/29/49 18/30/50 20/32/51 19/31/52
f 19/31/53 20/32/54 22/34/55 21/33/56
f 21/33/57 22/34/58 24/36/59 23/35/60
f 23/35/61 24/36/62 18/38/63 17/37/64
f 18/30/65 24/39/66 22/40/67 20/32/68
f 23/41/69 17/29/70 19/31/71 21/42/72
g default
v -43.003690 0.088824 24.852354
v -25.609913 0.088824 24.852354
v -43.003690 21.736844 24.852354
v -25.609913 21.736844 24.852354
v -43.003690 21.736844 14.317558
v -25.609913 21.736844 14.317558
v -43.003690 0.088824 14.317558
v -25.609913 0.088824 14.317558
vt 0.375000 0.000000
vt 0.625000 0.000000
vt 0.375000 0.250000
vt 0.625000 0.250000
vt 0.375000 0.500000
vt 0.625000 0.500000
vt 0.375000 0.750000
vt 0.625000 0.750000
vt 0.375000 1.000000
vt 0.625000 1.000000
vt 0.875000 0.000000
vt 0.875000 0.250000
vt 0.125000 0.000000
vt 0.125000 0.250000
vn 0.000000 0.000000 1.000000
vn 0.000000 0.000000 1.000000
vn 0.000000 0.000000 1.000000
vn 0.000000 0.000000 1.000000
vn 0.000000 1.000000 0.000000
vn 0.000000 1.000000 0.000000
vn 0.000000 1.000000 0.000000
vn 0.000000 1.000000 0.000000
vn 0.000000 0.000000 -1.000000
vn 0.000000 0.000000 -1.000000
vn 0.000000 0.000000 -1.000000
vn 0.000000 0.000000 -1.000000
vn 0.000000 -1.000000 0.000000
vn 0.000000 -1.000000 0.000000
vn 0.000000 -1.000000 0.000000
vn 0.000000 -1.000000 0.000000
vn 1.000000 0.000000 0.000000
vn 1.000000 0.000000 0.000000
vn 1.000000 0.000000 0.000000
vn 1.000000 0.000000 0.000000
vn -1.000000 0.000000 0.000000
vn -1.000000 0.000000 0.000000
vn -1.000000 0.000000 0.000000
vn -1.000000 0.000000 0.000000
s off
g pCube4
usemtl initialShadingGroup
f 25/43/73 26/44/74 28/46/75 27/45/76
f 27/45/77 28/46/78 30/48/79 29/47/80
f 29/47/81 30/48/82 32/50/83 31/49/84
f 31/49/85 32/50/86 26/52/87 25/51/88
f 26/44/89 32/53/90 30/54/91 28/46/92
f 31/55/93 25/43/94 27/45/95 29/56/96
g default
v -43.003690 0.088824 -13.815631
v -25.609913 0.088824 -13.815631
v -43.003690 15.144582 -13.815631
v -25.609913 15.144582 -13.815631
v -43.003690 15.144582 -24.350427
v -25.609913 15.144582 -24.350427
v -43.003690 0.088824 -24.350427
v -25.609913 0.088824 -24.350427
vt 0.375000 0.000000
vt 0.625000 0.000000
vt 0.375000 0.250000
vt 0.625000 0.250000
vt 0.375000 0.500000
vt 0.625000 0.500000
vt 0.375000 0.750000
vt 0.625000 0.750000
vt 0.375000 1.000000
vt 0.625000 1.000000
vt 0.875000 0.000000
vt 0.875000 0.250000
vt 0.125000 0.000000
vt 0.125000 0.250000
vn 0.000000 0.000000 1.000000
vn 0.000000 0.000000 1.000000
vn 0.000000 0.000000 1.000000
vn 0.000000 0.000000 1.000000
vn 0.000000 1.000000 0.000000
vn 0.000000 1.000000 0.000000
vn 0.000000 1.000000 0.000000
vn 0.000000 1.000000 0.000000
vn 0.000000 0.000000 -1.000000
vn 0.000000 0.000000 -1.000000
vn 0.000000 0.000000 -1.000000
vn 0.000000 0.000000 -1.000000
vn 0.000000 -1.000000 0.000000
vn 0.000000 -1.000000 0.000000
vn 0.000000 -1.000000 0.000000
vn 0.000000 -1.000000 0.000000
vn 1.000000 0.000000 0.000000
vn 1.000000 0.000000 0.000000
vn 1.000000 0.000000 0.000000
vn 1.000000 0.000000 0.000000
vn -1.000000 0.000000 0.000000
vn -1.000000 0.000000 0.000000
vn -1.000000 0.000000 0.000000
vn -1.000000 0.000000 0.000000
s off
g pCube5
usemtl initialShadingGroup
f 33/57/97 34/58/98 36/60/99 35/59/100
f 35/59/101 36/60/102 38/62/103 37/61/104
f 37/61/105 38/62/106 40/64/107 39/63/108
f 39/63/109 40/64/110 34/66/111 33/65/112
f 34/58/113 40/67/114 38/68/115 36/60/116
f 39/69/117 33/57/118 35/59/119 37/70/120
g default
v -12.621836 0.352783 -13.275447
v 15.152347 0.352783 -13.275447
v -12.621836 14.492254 -13.275447
v 15.152347 14.492254 -13.275447
v -12.621836 14.492254 -31.131753
v 15.152347 14.492254 -31.131753
v -12.621836 0.352783 -31.131753
v 15.152347 0.352783 -31.131753
vt 0.375000 0.000000
vt 0.625000 0.000000
vt 0.375000 0.250000
vt 0.625000 0.250000
vt 0.375000 0.500000
vt 0.625000 0.500000
vt 0.375000 0.750000
vt 0.625000 0.750000
vt 0.375000 1.000000
vt 0.625000 1.000000
vt 0.875000 0.000000
vt 0.875000 0.250000
vt 0.125000 0.000000
vt 0.125000 0.250000
vn 0.000000 0.000000 1.000000
vn 0.000000 0.000000 1.000000
vn 0.000000 0.000000 1.000000
vn 0.000000 0.000000 1.000000
vn 0.000000 1.000000 0.000000
vn 0.000000 1.000000 0.000000
vn 0.000000 1.000000 0.000000
vn 0.000000 1.000000 0.000000
vn 0.000000 0.000000 -1.000000
vn 0.000000 0.000000 -1.000000
vn 0.000000 0.000000 -1.000000
vn 0.000000 0.000000 -1.000000
vn 0.000000 -1.000000 0.000000
vn 0.000000 -1.000000 0.000000
vn 0.000000 -1.000000 0.000000
vn 0.000000 -1.000000 0.000000
vn 1.000000 0.000000 0.000000
vn 1.000000 0.000000 0.000000
vn 1.000000 0.000000 0.000000
vn 1.000000 0.000000 0.000000
vn -1.000000 0.000000 0.000000
vn -1.000000 0.000000 0.000000
vn -1.000000 0.000000 0.000000
vn -1.000000 0.000000 0.000000
s off
g pCube6
usemtl initialShadingGroup
f 41/71/121 42/72/122 44/74/123 43/73/124
f 43/73/125 44/74/126 46/76/127 45/75/128
f 45/75/129 46/76/130 48/78/131 47/77/132
f 47/77/133 48/78/134 42/80/135 41/79/136
f 42/72/137 48/81/138 46/82/139 44/74/140
f 47/83/141 41/71/142 43/73/143 45/84/144
g default
v -24.899436 0.088824 -13.815631
v -12.980362 0.088824 -13.815631
v -24.899436 12.868186 -13.815631
v -12.980362 12.868186 -13.815631
v -24.899436 12.868186 -24.350427
v -12.980362 12.868186 -24.350427
v -24.899436 0.088824 -24.350427
v -12.980362 0.088824 -24.350427
vt 0.375000 0.000000
vt 0.625000 0.000000
vt 0.375000 0.250000
vt 0.625000 0.250000
vt 0.375000 0.500000
vt 0.625000 0.500000
vt 0.375000 0.750000
vt 0.625000 0.750000
vt 0.375000 1.000000
vt 0.625000 1.000000
vt 0.875000 0.000000
vt 0.875000 0.250000
vt 0.125000 0.000000
vt 0.125000 0.250000
vn 0.000000 0.000000 1.000000
vn 0.000000 0.000000 1.000000
vn 0.000000 0.000000 1.000000
vn 0.000000 0.000000 1.000000
vn 0.000000 1.000000 0.000000
vn 0.000000 1.000000 0.000000
vn 0.000000 1.000000 0.000000
vn 0.000000 1.000000 0.000000
vn 0.000000 0.000000 -1.000000
vn 0.000000 0.000000 -1.000000
vn 0.000000 0.000000 -1.000000
vn 0.000000 0.000000 -1.000000
vn 0.000000 -1.000000 0.000000
vn 0.000000 -1.000000 0.000000
vn 0.000000 -1.000000 0.000000
vn 0.000000 -1.000000 0.000000
vn 1.000000 0.000000 0.000000
vn 1.000000 0.000000 0.000000
vn 1.000000 0.000000 0.000000
vn 1.000000 0.000000 0.000000
vn -1.000000 0.000000 0.000000
vn -1.000000 0.000000 0.000000
vn -1.000000 0.000000 0.000000
vn -1.000000 0.000000 0.000000
s off
g pCube8
usemtl initialShadingGroup
f 49/85/145 50/86/146 52/88/147 51/87/148
f 51/87/149 52/88/150 54/90/151 53/89/152
f 53/89/153 54/90/154 56/92/155 55/91/156
f 55/91/157 56/92/158 50/94/159 49/93/160
f 50/86/161 56/95/162 54/96/163 52/88/164
f 55/97/165 49/85/166 51/87/167 53/98/168
g default
v -67.428472 -1.256652 34.022988
v 16.503649 -1.256652 34.022988
v -67.428472 0.194562 34.022988
v 16.503649 0.194562 34.022988
v -67.428472 0.194562 -34.022988
v 16.503649 0.194562 -34.022988
v -67.428472 -1.256652 -34.022988
v 16.503649 -1.256652 -34.022988
v -67.428472 -1.256652 9.446315
v -67.428472 0.194562 9.446315
v 16.503649 0.194562 9.446315
v 16.503649 -1.256652 9.446315
v 16.503649 0.194562 -8.053059
v -67.428472 0.194562 -8.053059
v -67.428472 -1.256652 -8.053060
v 16.503649 -1.256652 -8.053060
v -67.412715 -0.471621 9.464044
v 16.375910 -0.471621 9.464044
v 16.375910 -0.471621 -8.070787
v -67.412715 -0.471621 -8.070787
vt 0.375000 0.000000
vt 0.625000 0.000000
vt 0.375000 0.250000
vt 0.625000 0.250000
vt 0.375000 0.500000
vt 0.625000 0.500000
vt 0.375000 0.750000
vt 0.625000 0.750000
vt 0.375000 1.000000
vt 0.625000 1.000000
vt 0.875000 0.000000
vt 0.875000 0.250000
vt 0.125000 0.000000
vt 0.125000 0.250000
vt 0.284706 0.000000
vt 0.375000 0.909706
vt 0.284706 0.250000
vt 0.375000 0.340294
vt 0.625000 0.340294
vt 0.715294 0.250000
vt 0.625000 0.909706
vt 0.715294 0.000000
vt 0.625000 0.404587
vt 0.779587 0.250000
vt 0.220413 0.250000
vt 0.375000 0.404587
vt 0.220413 0.000000
vt 0.375000 0.845413
vt 0.625000 0.845413
vt 0.779587 0.000000
vt 0.375000 0.340294
vt 0.625000 0.340294
vt 0.625000 0.404587
vt 0.375000 0.404587
vn 0.000000 0.000000 1.000000
vn 0.000000 0.000000 1.000000
vn 0.000000 0.000000 1.000000
vn 0.000000 0.000000 1.000000
vn 0.000000 1.000000 0.000000
vn 0.000000 1.000000 0.000000
vn 0.000000 1.000000 0.000000
vn 0.000000 1.000000 0.000000
vn 0.000000 0.000000 -1.000000
vn 0.000000 0.000000 -1.000000
vn 0.000000 0.000000 -1.000000
vn 0.000000 0.000000 -1.000000
vn 0.000000 -1.000000 0.000000
vn 0.000000 -1.000000 0.000000
vn 0.000000 -1.000000 0.000000
vn 0.000000 -1.000000 0.000000
vn -1.000000 0.000000 0.000000
vn -1.000000 0.000000 0.000000
vn -1.000000 0.000000 0.000000
vn -1.000000 0.000000 0.000000
vn 0.000000 1.000000 0.000000
vn 0.000000 1.000000 0.000000
vn 0.000000 1.000000 0.000000
vn 0.000000 1.000000 0.000000
vn 1.000000 0.000000 0.000000
vn 1.000000 0.000000 0.000000
vn 1.000000 0.000000 0.000000
vn 1.000000 0.000000 0.000000
vn 0.000000 -1.000000 0.000000
vn 0.000000 -1.000000 0.000000
vn 0.000000 1.000000 0.000000
vn 0.000000 1.000000 0.000000
vn 0.000000 1.000000 0.000000
vn 0.000000 1.000000 0.000000
vn -1.000000 -0.000003 0.000000
vn -1.000000 -0.000003 0.000000
vn -1.000000 -0.000003 0.000000
vn -1.000000 -0.000003 0.000000
vn 0.000000 -1.000000 0.000000
vn 0.000000 -1.000000 0.000000
vn 1.000000 -0.000002 0.000000
vn 1.000000 -0.000002 0.000000
vn 1.000000 -0.000002 0.000000
vn 1.000000 -0.000002 0.000000
vn 0.000000 -0.026604 -0.999646
vn 0.000000 -0.026604 -0.999646
vn 0.000000 -0.026604 -0.999646
vn 0.000000 -0.026604 -0.999646
vn 0.000000 -0.026603 0.999646
vn 0.000000 -0.026603 0.999646
vn 0.000000 -0.026603 0.999646
vn 0.000000 -0.026603 0.999646
vn 0.987018 0.160608 0.000000
vn 0.987018 0.160608 0.000000
vn 0.987018 0.160608 0.000000
vn 0.987018 0.160608 0.000000
vn -0.999799 0.020072 0.000000
vn -0.999799 0.020072 0.000000
vn -0.999799 0.020072 0.000000
vn -0.999799 0.020072 0.000000
s off
g pCube9
usemtl initialShadingGroup
f 57/99/169 58/100/170 60/102/171 59/101/172
f 73/129/173 74/130/174 75/131/175 76/132/176
f 61/103/177 62/104/178 64/106/179 63/105/180
s 1
f 71/126/181 72/127/182 68/119/183 65/114/184
s off
f 65/113/185 57/99/186 59/101/187 66/115/188
f 59/101/189 60/102/190 67/117/191 66/116/192
f 58/100/193 68/120/194 67/118/195 60/102/196
s 1
f 65/114/184 68/119/183 58/108/197 57/107/198
s off
f 70/124/199 69/121/200 62/104/201 61/103/202
f 63/111/203 71/125/204 70/123/205 61/112/206
s 1
f 63/105/207 64/106/208 72/127/182 71/126/181
s off
f 69/122/209 72/128/210 64/109/211 62/110/212
f 66/116/213 67/117/214 74/130/215 73/129/216
f 69/121/217 70/124/218 76/132/219 75/131/220
f 68/119/221 72/127/222 75/131/223 74/130/224
f 71/126/225 65/114/226 73/129/227 76/132/228
g default
v -59.630624 0.088824 -13.815631
v -43.975281 0.088824 -13.815631
v -59.630624 22.902003 -13.815631
v -43.975281 22.902003 -13.815631
v -59.630624 22.902003 -24.350427
v -43.975281 22.902003 -24.350427
v -59.630624 0.088824 -24.350427
v -43.975281 0.088824 -24.350427
vt 0.375000 0.000000
vt 0.625000 0.000000
vt 0.375000 0.250000
vt 0.625000 0.250000
vt 0.375000 0.500000
vt 0.625000 0.500000
vt 0.375000 0.750000
vt 0.625000 0.750000
vt 0.375000 1.000000
vt 0.625000 1.000000
vt 0.875000 0.000000
vt 0.875000 0.250000
vt 0.125000 0.000000
vt 0.125000 0.250000
vn 0.000000 0.000000 1.000000
vn 0.000000 0.000000 1.000000
vn 0.000000 0.000000 1.000000
vn 0.000000 0.000000 1.000000
vn 0.000000 1.000000 0.000000
vn 0.000000 1.000000 0.000000
vn 0.000000 1.000000 0.000000
vn 0.000000 1.000000 0.000000
vn 0.000000 0.000000 -1.000000
vn 0.000000 0.000000 -1.000000
vn 0.000000 0.000000 -1.000000
vn 0.000000 0.000000 -1.000000
vn 0.000000 -1.000000 0.000000
vn 0.000000 -1.000000 0.000000
vn 0.000000 -1.000000 0.000000
vn 0.000000 -1.000000 0.000000
vn 1.000000 0.000000 0.000000
vn 1.000000 0.000000 0.000000
vn 1.000000 0.000000 0.000000
vn 1.000000 0.000000 0.000000
vn -1.000000 0.000000 0.000000
vn -1.000000 0.000000 0.000000
vn -1.000000 0.000000 0.000000
vn -1.000000 0.000000 0.000000
s off
g pCube10
usemtl initialShadingGroup
f 77/133/229 78/134/230 80/136/231 79/135/232
f 79/135/233 80/136/234 82/138/235 81/137/236
f 81/137/237 82/138/238 84/140/239 83/139/240
f 83/139/241 84/140/242 78/142/243 77/141/244
f 78/134/245 84/143/246 82/144/247 80/136/248
f 83/145/249 77/133/250 79/135/251 81/146/252
g default
v -55.230773 0.088824 24.852354
v -43.791818 0.088824 24.852354
v -55.230773 15.634640 24.852354
v -43.791818 15.634640 24.852354
v -55.230773 15.634640 14.317558
v -43.791818 15.634640 14.317558
v -55.230773 0.088824 14.317558
v -43.791818 0.088824 14.317558
vt 0.375000 0.000000
vt 0.625000 0.000000
vt 0.375000 0.250000
vt 0.625000 0.250000
vt 0.375000 0.500000
vt 0.625000 0.500000
vt 0.375000 0.750000
vt 0.625000 0.750000
vt 0.375000 1.000000
vt 0.625000 1.000000
vt 0.875000 0.000000
vt 0.875000 0.250000
vt 0.125000 0.000000
vt 0.125000 0.250000
vn 0.000000 0.000000 1.000000
vn 0.000000 0.000000 1.000000
vn 0.000000 0.000000 1.000000
vn 0.000000 0.000000 1.000000
vn 0.000000 1.000000 0.000000
vn 0.000000 1.000000 0.000000
vn 0.000000 1.000000 0.000000
vn 0.000000 1.000000 0.000000
vn 0.000000 0.000000 -1.000000
vn 0.000000 0.000000 -1.000000
vn 0.000000 0.000000 -1.000000
vn 0.000000 0.000000 -1.000000
vn 0.000000 -1.000000 0.000000
vn 0.000000 -1.000000 0.000000
vn 0.000000 -1.000000 0.000000
vn 0.000000 -1.000000 0.000000
vn 1.000000 0.000000 0.000000
vn 1.000000 0.000000 0.000000
vn 1.000000 0.000000 0.000000
vn 1.000000 0.000000 0.000000
vn -1.000000 0.000000 0.000000
vn -1.000000 0.000000 0.000000
vn -1.000000 0.000000 0.000000
vn -1.000000 0.000000 0.000000
s off
g pCube11
usemtl initialShadingGroup
f 85/147/253 86/148/254 88/150/255 87/149/256
f 87/149/257 88/150/258 90/152/259 89/151/260
f 89/151/261 90/152/262 92/154/263 91/153/264
f 91/153/265 92/154/266 86/156/267 85/155/268
f 86/148/269 92/157/270 90/158/271 88/150/272
f 91/159/273 85/147/274 87/149/275 89/160/276
g default
v -60.821458 -0.033896 -8.234772
v -60.227566 -0.033896 -8.234772
v -60.821458 9.951992 -8.234772
v -60.227566 9.951992 -8.234772
v -60.821458 9.951992 -20.541621
v -60.227566 9.951992 -20.541621
v -60.821458 -0.033896 -20.541621
v -60.227566 -0.033896 -20.541621
vt 0.375000 0.000000
vt 0.625000 0.000000
vt 0.375000 0.250000
vt 0.625000 0.250000
vt 0.375000 0.500000
vt 0.625000 0.500000
vt 0.375000 0.750000
vt 0.625000 0.750000
vt 0.375000 1.000000
vt 0.625000 1.000000
vt 0.875000 0.000000
vt 0.875000 0.250000
vt 0.125000 0.000000
vt 0.125000 0.250000
vn 0.000000 0.000000 1.000000
vn 0.000000 0.000000 1.000000
vn 0.000000 0.000000 1.000000
vn 0.000000 0.000000 1.000000
vn 0.000000 1.000000 0.000000
vn 0.000000 1.000000 0.000000
vn 0.000000 1.000000 0.000000
vn 0.000000 1.000000 0.000000
vn 0.000000 0.000000 -1.000000
vn 0.000000 0.000000 -1.000000
vn 0.000000 0.000000 -1.000000
vn 0.000000 0.000000 -1.000000
vn 0.000000 -1.000000 0.000000
vn 0.000000 -1.000000 0.000000
vn 0.000000 -1.000000 0.000000
vn 0.000000 -1.000000 0.000000
vn 1.000000 0.000000 0.000000
vn 1.000000 0.000000 0.000000
vn 1.000000 0.000000 0.000000
vn 1.000000 0.000000 0.000000
vn -1.000000 0.000000 0.000000
vn -1.000000 0.000000 0.000000
vn -1.000000 0.000000 0.000000
vn -1.000000 0.000000 0.000000
s off
g pCube12
usemtl initialShadingGroup
f 93/161/277 94/162/278 96/164/279 95/163/280
f 95/163/281 96/164/282 98/166/283 97/165/284
f 97/165/285 98/166/286 100/168/287 99/167/288
f 99/167/289 100/168/290 94/170/291 93/169/292
f 94/162/293 100/171/294 98/172/295 96/164/296
f 99/173/297 93/161/298 95/163/299 97/174/300
g default
v -67.796049 -0.029142 -5.879114
v -67.568128 -0.029142 -5.330698
v -67.796049 9.956746 -5.879114
v -67.568128 9.956746 -5.330698
v -60.566956 9.956746 -8.883520
v -60.339035 9.956746 -8.335104
v -60.566956 -0.029142 -8.883520
v -60.339035 -0.029142 -8.335104
vt 0.375000 0.000000
vt 0.625000 0.000000
vt 0.375000 0.250000
vt 0.625000 0.250000
vt 0.375000 0.500000
vt 0.625000 0.500000
vt 0.375000 0.750000
vt 0.625000 0.750000
vt 0.375000 1.000000
vt 0.625000 1.000000
vt 0.875000 0.000000
vt 0.875000 0.250000
vt 0.125000 0.000000
vt 0.125000 0.250000
vn -0.923426 0.000000 0.383775
vn -0.923426 0.000000 0.383775
vn -0.923426 0.000000 0.383775
vn -0.923426 0.000000 0.383775
vn 0.000000 1.000000 0.000000
vn 0.000000 1.000000 0.000000
vn 0.000000 1.000000 0.000000
vn 0.000000 1.000000 0.000000
vn 0.923426 0.000000 -0.383775
vn 0.923426 0.000000 -0.383775
vn 0.923426 0.000000 -0.383775
vn 0.923426 0.000000 -0.383775
vn 0.000000 -1.000000 0.000000
vn 0.000000 -1.000000 0.000000
vn 0.000000 -1.000000 0.000000
vn 0.000000 -1.000000 0.000000
vn 0.383775 0.000000 0.923426
vn 0.383775 0.000000 0.923426
vn 0.383775 0.000000 0.923426
vn 0.383775 0.000000 0.923426
vn -0.383775 0.000000 -0.923426
vn -0.383775 0.000000 -0.923426
vn -0.383775 0.000000 -0.923426
vn -0.383775 0.000000 -0.923426
s off
g pCube13
usemtl initialShadingGroup
f 101/175/301 102/176/302 104/178/303 103/177/304
f 103/177/305 104/178/306 106/180/307 105/179/308
f 105/179/309 106/180/310 108/182/311 107/181/312
f 107/181/313 108/182/314 102/184/315 101/183/316
f 102/176/317 108/185/318 106/186/319 104/178/320
f 107/187/321 101/175/322 103/177/323 105/188/324
g default
v -66.522774 -0.033896 12.899299
v -65.928882 -0.033896 12.899299
v -66.522774 9.951992 12.899299
v -65.928882 9.951992 12.899299
v -66.522774 9.951992 -6.060267
v -66.522774 -0.033896 -6.060267
v -65.928882 -0.033896 -6.060267
v -65.928882 9.951992 -6.060267
vt 0.375000 0.000000
vt 0.625000 0.000000
vt 0.375000 0.250000
vt 0.625000 0.250000
vt 0.375000 1.000000
vt 0.625000 1.000000
vt 0.191424 0.250000
vt 0.375000 0.433576
vt 0.191424 0.000000
vt 0.375000 0.816424
vt 0.625000 0.816424
vt 0.808576 0.000000
vt 0.625000 0.433576
vt 0.808576 0.250000
vn 0.000000 0.000000 1.000000
vn 0.000000 0.000000 1.000000
vn 0.000000 0.000000 1.000000
vn 0.000000 0.000000 1.000000
vn 0.000000 1.000000 0.000000
vn 0.000000 1.000000 0.000000
vn 0.000000 1.000000 0.000000
vn 0.000000 1.000000 0.000000
vn 0.000000 -1.000000 0.000000
vn 0.000000 -1.000000 0.000000
vn 0.000000 -1.000000 0.000000
vn 0.000000 -1.000000 0.000000
vn 1.000000 0.000000 0.000000
vn 1.000000 0.000000 0.000000
vn 1.000000 0.000000 0.000000
vn 1.000000 0.000000 0.000000
vn -1.000000 0.000000 0.000000
vn -1.000000 0.000000 0.000000
vn -1.000000 0.000000 0.000000
vn -1.000000 0.000000 0.000000
s off
g pCube14
usemtl initialShadingGroup
f 109/189/325 110/190/326 112/192/327 111/191/328
f 111/191/329 112/192/330 116/201/331 113/196/332
f 114/198/333 115/199/334 110/194/335 109/193/336
f 110/190/337 115/200/338 116/202/339 112/192/340
f 114/197/341 109/189/342 111/191/343 113/195/344
g default
v -67.914959 -0.018079 12.689524
v -52.890784 -0.018079 15.578440
v -67.914959 11.568896 12.689524
v -52.890784 11.568896 15.578440
v -67.783262 11.568896 12.004618
v -52.759087 11.568896 14.893534
v -67.783262 -0.018079 12.004618
v -52.759087 -0.018079 14.893534
vt 0.375000 0.000000
vt 0.625000 0.000000
vt 0.375000 0.250000
vt 0.625000 0.250000
vt 0.375000 0.500000
vt 0.625000 0.500000
vt 0.375000 0.750000
vt 0.625000 0.750000
vt 0.375000 1.000000
vt 0.625000 1.000000
vt 0.875000 0.000000
vt 0.875000 0.250000
vt 0.125000 0.000000
vt 0.125000 0.250000
vn -0.188825 0.000000 0.982011
vn -0.188825 0.000000 0.982011
vn -0.188825 0.000000 0.982011
vn -0.188825 0.000000 0.982011
vn 0.000000 1.000000 0.000000
vn 0.000000 1.000000 0.000000
vn 0.000000 1.000000 0.000000
vn 0.000000 1.000000 0.000000
vn 0.188825 0.000000 -0.982011
vn 0.188825 0.000000 -0.982011
vn 0.188825 0.000000 -0.982011
vn 0.188825 0.000000 -0.982011
vn 0.000000 -1.000000 0.000000
vn 0.000000 -1.000000 0.000000
vn 0.000000 -1.000000 0.000000
vn 0.000000 -1.000000 0.000000
vn 0.982011 0.000000 0.188825
vn 0.982011 0.000000 0.188825
vn 0.982011 0.000000 0.188825
vn 0.982011 0.000000 0.188825
vn -0.982011 0.000000 -0.188825
vn -0.982011 0.000000 -0.188825
vn -0.982011 0.000000 -0.188825
vn -0.982011 0.000000 -0.188825
s off
g pCube15
usemtl initialShadingGroup
f 117/203/345 118/204/346 120/206/347 119/205/348
f 119/205/349 120/206/350 122/208/351 121/207/352
f 121/207/353 122/208/354 124/210/355 123/209/356
f 123/209/357 124/210/358 118/212/359 117/211/360
f 118/204/361 124/213/362 122/214/363 120/206/364
f 123/215/365 117/203/366 119/205/367 121/216/368
